<svg width="80" height="60" xmlns="http://www.w3.org/2000/svg"> <!-- Created with Method Draw - http://github.com/duopixel/Method-Draw/ --> <g> <title>background</title> <rect fill="#f7f7f7" id="canvas_background" height="62" width="82" y="-1" x="-1"/> <g display="none" overflow="visible" y="0" x="0" height="100%" width="100%" id="canvasGrid"> <rect fill="url(#gridpattern)" stroke-width="0" y="0" x="0" height="100%" width="100%"/> </g> </g> <g> <title>Layer 1</title> <rect stroke="#e5e5e5" id="svg_3" height="19.666484" width="28.999732" y="20.239626" x="25.416665" stroke-width="3" fill="#ffffff"/> <path id="svg_4" d="m31.249945,34.906156c0,0 18.166498,0 18.166498,0c0,0 -0.166665,-10.666568 -0.166665,-10.666568c0,0 -4.166628,5.166619 -4.250193,5.093475c0.083565,0.073144 -2.916407,-2.926828 -2.999972,-2.999972c0.083565,0.073144 -4.249728,4.906433 -4.333293,4.833289c0.083566,0.073144 -3.749732,-1.260177 -3.833298,-1.333321" stroke-opacity="null" stroke-width="0" stroke="#e5e5e5" fill="#ffffff"/> <path stroke-width="0" id="svg_5" d="m30.583284,35.906147c0,0 19.166489,0 19.166489,0c0,0 0,-11.166563 -0.083565,-11.239707c0.083565,0.073144 -3.916398,4.906433 -3.916398,4.906433c0,0 -4.166628,-0.833326 -4.250193,-0.906469c0.083565,0.073144 -2.583077,5.239763 -2.749742,5.239763c-0.166665,0 -6.16661,-0.66666 -6.250175,-0.739804c0.083566,0.073144 -1.916416,2.739786 -1.916416,2.739786z" stroke-opacity="null" stroke="#e5e5e5" fill="#e5e5e5"/> <ellipse ry="2.083314" rx="2.083314" id="svg_6" cy="26.989563" cx="34.66658" stroke-opacity="null" stroke="#e5e5e5" fill="#e5e5e5"/> </g></svg>